<svg viewBox="0 0 48.06 46"><path d="M23,0C15.86,0,10,8.29,10,18.49a22.61,22.61,0,0,0,4.06,13.37,3.49,3.49,0,0,0,2.8,4.08,3.39,3.39,0,0,0,.64.06,3.5,3.5,0,0,0,0-7,3.66,3.66,0,0,0-.57.05A19.25,19.25,0,0,1,14,18.49C14,10.63,18.15,4,23,4c4.12,0,7.69,4.74,8.7,10.94A28,28,0,0,1,36,16.56C35.28,7.27,29.74,0,23,0Zm-1.5,15a3.5,3.5,0,0,0,0,7h0a3.5,3.5,0,0,0,3.14-2,18.71,18.71,0,0,1,10.47,2.88C42,27,45.73,34.22,43.28,38.62a6.5,6.5,0,0,1-4.18,3,15.63,15.63,0,0,1-9.58-1A28.09,28.09,0,0,1,26,43.42,22.8,22.8,0,0,0,36.09,46a15.64,15.64,0,0,0,4-.51,10.39,10.39,0,0,0,6.65-4.92c3.58-6.45-.63-15.71-9.58-21.08a22.58,22.58,0,0,0-13.14-3.4A3.5,3.5,0,0,0,21.53,15ZM8.19,21.32C1.11,26.8-1.93,34.8,1.27,40.57a10.43,10.43,0,0,0,6.66,4.92A15.58,15.58,0,0,0,12,46a23.29,23.29,0,0,0,11.76-3.49A23.76,23.76,0,0,0,32.9,33,3.49,3.49,0,1,0,29,29.5a3.41,3.41,0,0,0,.35,1.5,20,20,0,0,1-7.7,8.08c-4.3,2.58-9,3.53-12.72,2.55a6.49,6.49,0,0,1-4.19-3c-1.93-3.48,0-8.7,4.29-12.76A26.24,26.24,0,0,1,8.19,21.32Z"/></svg>