<svg xmlns="http://www.w3.org/2000/svg" viewBox="0 0 42 46"><title>Asset 1</title><g id="Layer_2" data-name="Layer 2"><g id="Layer_1-2" data-name="Layer 1"><path d="M39.91,10,23.07.54a4.24,4.24,0,0,0-4.14,0L2.09,10A4.06,4.06,0,0,0,0,13.53V32.46A4.05,4.05,0,0,0,2.09,36l16.84,9.47a4.24,4.24,0,0,0,4.14,0L39.91,36A4.05,4.05,0,0,0,42,32.46V13.53A4.06,4.06,0,0,0,39.91,10ZM21,35a12,12,0,1,1,9.54-19.26l-4.38,2.53a7,7,0,1,0,0,9.45l4.38,2.53A11.93,11.93,0,0,1,21,35ZM33,24H31v2H29V24H27V22h2V20h2v2h2Zm7,0H38v2H36V24H34V22h2V20h2v2h2Z"/></g></g></svg>